<?xml version="1.0" encoding="UTF-8"?> <svg xmlns="http://www.w3.org/2000/svg" width="43" height="58" viewBox="0 0 43 58" fill="none"> <g filter="url(#filter0_f_9_279)"> <path d="M22.08 46.48C16.704 46.48 12.032 44.688 8.064 41.104L11.616 36.88C14.976 39.792 18.512 41.248 22.224 41.248C24.048 41.248 25.488 40.864 26.544 40.096C27.632 39.296 28.176 38.272 28.176 37.024V36.928C28.176 35.68 27.648 34.688 26.592 33.952C25.568 33.184 23.568 32.464 20.592 31.792C16.72 30.896 13.888 29.728 12.096 28.288C10.304 26.848 9.408 24.672 9.408 21.76V21.664C9.408 18.784 10.48 16.448 12.624 14.656C14.768 12.832 17.52 11.92 20.88 11.92C25.456 11.92 29.52 13.328 33.072 16.144L29.904 20.608C26.768 18.304 23.728 17.152 20.784 17.152C19.088 17.152 17.744 17.536 16.752 18.304C15.792 19.04 15.312 19.984 15.312 21.136V21.232C15.312 22.544 15.84 23.568 16.896 24.304C17.984 25.008 20.128 25.744 23.328 26.512C27.072 27.472 29.792 28.688 31.488 30.16C33.216 31.6 34.08 33.664 34.08 36.352V36.448C34.08 39.552 32.976 42 30.768 43.792C28.56 45.584 25.664 46.48 22.08 46.48Z" fill="url(#paint0_linear_9_279)"></path> </g> <path d="M22.08 46.48C16.704 46.48 12.032 44.688 8.064 41.104L11.616 36.88C14.976 39.792 18.512 41.248 22.224 41.248C24.048 41.248 25.488 40.864 26.544 40.096C27.632 39.296 28.176 38.272 28.176 37.024V36.928C28.176 35.68 27.648 34.688 26.592 33.952C25.568 33.184 23.568 32.464 20.592 31.792C16.72 30.896 13.888 29.728 12.096 28.288C10.304 26.848 9.408 24.672 9.408 21.76V21.664C9.408 18.784 10.48 16.448 12.624 14.656C14.768 12.832 17.52 11.92 20.88 11.92C25.456 11.92 29.52 13.328 33.072 16.144L29.904 20.608C26.768 18.304 23.728 17.152 20.784 17.152C19.088 17.152 17.744 17.536 16.752 18.304C15.792 19.04 15.312 19.984 15.312 21.136V21.232C15.312 22.544 15.84 23.568 16.896 24.304C17.984 25.008 20.128 25.744 23.328 26.512C27.072 27.472 29.792 28.688 31.488 30.16C33.216 31.6 34.08 33.664 34.08 36.352V36.448C34.08 39.552 32.976 42 30.768 43.792C28.56 45.584 25.664 46.48 22.08 46.48Z" fill="url(#paint1_linear_9_279)"></path> <defs> <filter id="filter0_f_9_279" x="0.0639954" y="3.91992" width="42.016" height="50.5601" filterUnits="userSpaceOnUse" color-interpolation-filters="sRGB"> <feFlood flood-opacity="0" result="BackgroundImageFix"></feFlood> <feBlend mode="normal" in="SourceGraphic" in2="BackgroundImageFix" result="shape"></feBlend> <feGaussianBlur stdDeviation="4" result="effect1_foregroundBlur_9_279"></feGaussianBlur> </filter> <linearGradient id="paint0_linear_9_279" x1="19.5" y1="0" x2="19.5" y2="58" gradientUnits="userSpaceOnUse"> <stop stop-color="white"></stop> <stop offset="1" stop-color="#FF8E6E"></stop> </linearGradient> <linearGradient id="paint1_linear_9_279" x1="19.5" y1="0" x2="19.5" y2="58" gradientUnits="userSpaceOnUse"> <stop stop-color="white"></stop> <stop offset="1" stop-color="#FF8E6E"></stop> </linearGradient> </defs> </svg> 