<?xml version="1.0" encoding="UTF-8"?> <svg xmlns="http://www.w3.org/2000/svg" width="78" height="65" viewBox="0 0 78 65" fill="none"> <g filter="url(#filter0_b_9_253)"> <path d="M76.2326 7.50152C75.0073 8.05462 73.7474 8.52151 72.4601 8.90063C73.9841 7.14628 75.146 5.08211 75.8554 2.82334C76.0144 2.31707 75.8496 1.76288 75.4407 1.43167C75.0322 1.10031 74.4649 1.06061 74.0154 1.33182C71.2815 2.98213 68.3322 4.16818 65.2396 4.86162C62.1243 1.76335 57.8933 0 53.5192 0C44.2862 0 36.7746 7.64542 36.7746 17.0427C36.7746 17.7828 36.8206 18.5189 36.9117 19.2447C25.4546 18.2209 14.803 12.489 7.48867 3.35675C7.22801 3.03128 6.82644 2.85575 6.41526 2.8894C6.00393 2.92212 5.63419 3.15827 5.4264 3.52127C3.94287 6.11218 3.15861 9.07554 3.15861 12.0907C3.15861 16.1973 4.59902 20.0935 7.14361 23.1381C6.36986 22.8654 5.61911 22.5246 4.90249 22.1197C4.51782 21.9017 4.0483 21.9051 3.66606 22.1281C3.28368 22.3512 3.04389 22.7613 3.03369 23.2098C3.03186 23.2853 3.03186 23.3608 3.03186 23.4374C3.03186 29.5671 6.27312 35.0859 11.2287 38.0937C10.8029 38.0505 10.3776 37.9877 9.95481 37.9055C9.51896 37.8207 9.07092 37.9762 8.77704 38.3145C8.48272 38.6526 8.38522 39.1238 8.52095 39.5541C10.3552 45.383 15.0777 49.6702 20.7868 50.9774C16.0516 53.9961 10.6367 55.5773 4.9523 55.5773C3.76615 55.5773 2.5733 55.5064 1.40589 55.3658C0.825921 55.2955 0.27139 55.6441 0.0738001 56.2056C-0.12379 56.7672 0.0856829 57.3934 0.578972 57.7153C7.88157 62.481 16.3254 65 24.9972 65C42.045 65 52.7096 56.8176 58.6539 49.9534C66.0665 41.3942 70.3177 30.0652 70.3177 18.8713C70.3177 18.4037 70.3107 17.9315 70.2965 17.4608C73.221 15.2181 75.7388 12.5039 77.7877 9.38442C78.0989 8.91071 78.0653 8.28442 77.7047 7.84839C77.345 7.41159 76.7447 7.27048 76.2326 7.50152Z" fill="white"></path> </g> <defs> <filter id="filter0_b_9_253" x="-4" y="-4" width="86" height="73" filterUnits="userSpaceOnUse" color-interpolation-filters="sRGB"> <feFlood flood-opacity="0" result="BackgroundImageFix"></feFlood> <feGaussianBlur in="BackgroundImageFix" stdDeviation="2"></feGaussianBlur> <feComposite in2="SourceAlpha" operator="in" result="effect1_backgroundBlur_9_253"></feComposite> <feBlend mode="normal" in="SourceGraphic" in2="effect1_backgroundBlur_9_253" result="shape"></feBlend> </filter> </defs> </svg> 