<?xml version="1.0" encoding="UTF-8"?> <svg xmlns="http://www.w3.org/2000/svg" width="109" height="66" viewBox="0 0 109 66" fill="none"> <g filter="url(#filter0_b_9_251)"> <path d="M77.151 16.8138L83.5248 24.3897C84.2541 25.2527 84.8883 25.924 85.1737 26.3396C87.0763 28.2575 88.1545 30.8467 88.1545 33.5318C87.9642 36.6964 85.9348 38.87 84.0321 41.2035L79.561 46.4778L77.2461 49.2268C77.151 49.3227 77.1193 49.4506 77.0876 49.5785C77.0559 49.7063 77.0876 49.8342 77.151 49.9301C77.2144 50.0579 77.2779 50.1538 77.4047 50.2178C77.4998 50.2817 77.6267 50.3137 77.7535 50.3137H101.029C104.58 50.3137 109.052 53.3184 108.798 57.8895C108.798 59.9672 107.942 61.9491 106.483 63.4195C104.993 64.8899 102.995 65.721 100.902 65.721H64.4352C62.0252 65.721 55.5881 65.9767 53.7806 60.4467C53.4 59.296 53.3366 58.0493 53.622 56.8666C54.1611 55.1085 54.9856 53.4463 56.0637 51.9759C57.9029 49.2268 59.8689 46.5098 61.835 43.8566C64.3718 40.3724 66.9403 37.016 69.5089 33.4679C69.604 33.34 69.6357 33.2121 69.6357 33.0523C69.6357 32.8925 69.5723 32.7646 69.5089 32.6368L60.2495 21.6726C60.186 21.6087 60.1226 21.5447 60.0275 21.4808C59.9324 21.4488 59.8372 21.4169 59.7421 21.4169C59.647 21.4169 59.5518 21.4488 59.4567 21.4808C59.3616 21.5128 59.2982 21.5767 59.2347 21.6726C56.7613 24.997 45.8847 39.7331 43.5699 42.7378C41.255 45.7106 35.5472 45.9024 32.3762 42.7378L17.8846 28.2895C17.7894 28.1936 17.6626 28.1296 17.5358 28.0977C17.4089 28.0657 17.2821 28.0977 17.1552 28.1296C17.0284 28.1936 16.9333 28.2575 16.8699 28.3854C16.8064 28.4812 16.743 28.6091 16.7747 28.737V56.515C16.8064 58.4968 16.2356 60.4148 15.0941 62.045C13.9525 63.6752 12.367 64.8899 10.4961 65.5612C9.2911 65.9767 8.02269 66.1046 6.78599 65.9128C5.54929 65.721 4.3443 65.2735 3.32958 64.5383C2.28314 63.8031 1.45867 62.8441 0.887888 61.7253C0.317103 60.6065 0 59.3599 0 58.1132V8.15121C0.0951307 6.36114 0.729338 4.635 1.87091 3.19655C3.01248 1.79007 4.53457 0.767171 6.27863 0.287689C7.76901 -0.0958964 9.35452 -0.0958964 10.8449 0.287689C12.3353 0.70324 13.6988 1.47042 14.8087 2.58921L37.101 24.7413C37.1644 24.8052 37.2595 24.8691 37.323 24.9011C37.4181 24.9331 37.5132 24.9331 37.6083 24.9331C37.7035 24.9331 37.7986 24.9011 37.862 24.8372C37.9572 24.8052 38.0206 24.7413 38.084 24.6454L53.9074 2.87689C54.6367 1.98186 55.5563 1.27862 56.6028 0.799139C57.6492 0.319657 58.7908 0.0319694 59.9324 0.0319694H101.092C102.234 0.0319694 103.344 0.287697 104.358 0.735214C105.373 1.2147 106.293 1.88596 107.054 2.71707C107.783 3.54817 108.354 4.5391 108.671 5.62593C108.988 6.71275 109.083 7.83155 108.925 8.95034C108.639 10.8683 107.656 12.6264 106.166 13.873C104.676 15.1197 102.773 15.8229 100.807 15.7909H77.7535C77.6267 15.7909 77.5315 15.8229 77.4364 15.8868C77.3413 15.9508 77.2461 16.0467 77.2144 16.1426C77.151 16.2385 77.151 16.3663 77.151 16.4622C77.0559 16.5901 77.0876 16.7179 77.151 16.8138Z" fill="white"></path> </g> <defs> <filter id="filter0_b_9_251" x="-4" y="-4" width="117" height="74" filterUnits="userSpaceOnUse" color-interpolation-filters="sRGB"> <feFlood flood-opacity="0" result="BackgroundImageFix"></feFlood> <feGaussianBlur in="BackgroundImageFix" stdDeviation="2"></feGaussianBlur> <feComposite in2="SourceAlpha" operator="in" result="effect1_backgroundBlur_9_251"></feComposite> <feBlend mode="normal" in="SourceGraphic" in2="effect1_backgroundBlur_9_251" result="shape"></feBlend> </filter> </defs> </svg> 