<?xml version="1.0" encoding="UTF-8"?> <svg xmlns="http://www.w3.org/2000/svg" width="177" height="113" viewBox="0 0 177 113" fill="none"> <circle cx="56" cy="56.1133" r="55" stroke="url(#paint0_linear_42_73)" stroke-width="2"></circle> <path d="M26.8 61.2533C25.3867 62.6533 23.6133 63.3533 21.48 63.3533C19.3467 63.3533 17.5733 62.6599 16.16 61.2733C14.76 59.8733 14.06 58.1666 14.06 56.1533V56.1133C14.06 54.0999 14.7667 52.3933 16.18 50.9933C17.6067 49.5799 19.3867 48.8733 21.52 48.8733C23.6533 48.8733 25.42 49.5733 26.82 50.9733C28.2333 52.3599 28.94 54.0599 28.94 56.0733V56.1133C28.94 58.1266 28.2267 59.8399 26.8 61.2533ZM18.48 59.2333C19.28 60.0866 20.2933 60.5133 21.52 60.5133C22.7467 60.5133 23.7533 60.0933 24.54 59.2533C25.3267 58.4133 25.72 57.3799 25.72 56.1533V56.1133C25.72 54.8866 25.32 53.8466 24.52 52.9933C23.72 52.1399 22.7067 51.7133 21.48 51.7133C20.2533 51.7133 19.2467 52.1333 18.46 52.9733C17.6733 53.8133 17.28 54.8466 17.28 56.0733V56.1133C17.28 57.3399 17.68 58.3799 18.48 59.2333ZM41.6722 63.1133V49.1133H48.0722C49.8455 49.1133 51.2055 49.5866 52.1522 50.5333C52.9522 51.3333 53.3522 52.3999 53.3522 53.7333V53.7733C53.3522 55.9199 52.3522 57.3666 50.3522 58.1133L53.7722 63.1133H50.1722L47.1722 58.6333H44.7522V63.1133H41.6722ZM44.7522 55.9133H47.8722C48.6189 55.9133 49.1989 55.7399 49.6122 55.3933C50.0255 55.0333 50.2322 54.5466 50.2322 53.9333V53.8933C50.2322 53.2399 50.0189 52.7466 49.5922 52.4133C49.1789 52.0666 48.5855 51.8933 47.8122 51.8933H44.7522V55.9133ZM64.9253 63.1133L70.9253 49.0133H73.7653L79.7653 63.1133H76.5453L75.2653 59.9733H69.3453L68.0653 63.1133H64.9253ZM70.4453 57.2533H74.1653L72.3053 52.7133L70.4453 57.2533ZM97.5877 63.3533C95.5343 63.3533 93.821 62.6599 92.4477 61.2733C91.0877 59.8866 90.4077 58.1799 90.4077 56.1533V56.1133C90.4077 54.0866 91.0943 52.3733 92.4677 50.9733C93.841 49.5733 95.5877 48.8733 97.7077 48.8733C99.9477 48.8733 101.788 49.5933 103.228 51.0333L101.268 53.2933C100.081 52.2399 98.8877 51.7133 97.6877 51.7133C96.5277 51.7133 95.561 52.1399 94.7877 52.9933C94.0143 53.8333 93.6277 54.8599 93.6277 56.0733V56.1133C93.6277 57.3399 94.0077 58.3799 94.7677 59.2333C95.541 60.0866 96.5143 60.5133 97.6877 60.5133C98.4343 60.5133 99.081 60.3799 99.6277 60.1133C100.188 59.8466 100.768 59.4333 101.368 58.8733L103.328 60.8533C102.554 61.6933 101.721 62.3199 100.828 62.7333C99.9477 63.1466 98.8677 63.3533 97.5877 63.3533ZM115.793 63.1133V49.1133H118.873V60.3133H125.853V63.1133H115.793ZM138.176 63.1133V49.1133H148.736V51.8533H141.236V54.6933H147.836V57.4333H141.236V60.3733H148.836V63.1133H138.176ZM166.555 63.3133C164.248 63.3133 162.268 62.5666 160.615 61.0733L162.435 58.8933C163.835 60.0266 165.228 60.5933 166.615 60.5933C167.255 60.5933 167.748 60.4799 168.095 60.2533C168.455 60.0133 168.635 59.6866 168.635 59.2733V59.2333C168.635 58.8333 168.448 58.5066 168.075 58.2533C167.701 57.9999 166.948 57.7333 165.815 57.4533C165.028 57.2533 164.381 57.0599 163.875 56.8733C163.368 56.6733 162.895 56.4133 162.455 56.0933C162.015 55.7733 161.688 55.3733 161.475 54.8933C161.275 54.4133 161.175 53.8399 161.175 53.1733V53.1333C161.175 51.8666 161.628 50.8466 162.535 50.0733C163.441 49.2999 164.621 48.9133 166.075 48.9133C168.048 48.9133 169.781 49.5066 171.275 50.6933L169.675 53.0133C168.328 52.0933 167.115 51.6333 166.035 51.6333C165.448 51.6333 165.001 51.7466 164.695 51.9733C164.388 52.1999 164.235 52.4933 164.235 52.8533V52.8933C164.235 53.3466 164.421 53.6866 164.795 53.9133C165.181 54.1266 166.001 54.3999 167.255 54.7333C168.775 55.1466 169.895 55.6599 170.615 56.2733C171.335 56.8866 171.695 57.7733 171.695 58.9333V58.9733C171.695 60.3333 171.221 61.3999 170.275 62.1733C169.341 62.9333 168.101 63.3133 166.555 63.3133Z" fill="white"></path> <g filter="url(#filter0_f_42_73)"> <path d="M26.8 61.2533C25.3867 62.6533 23.6133 63.3533 21.48 63.3533C19.3467 63.3533 17.5733 62.6599 16.16 61.2733C14.76 59.8733 14.06 58.1666 14.06 56.1533V56.1133C14.06 54.0999 14.7667 52.3933 16.18 50.9933C17.6067 49.5799 19.3867 48.8733 21.52 48.8733C23.6533 48.8733 25.42 49.5733 26.82 50.9733C28.2333 52.3599 28.94 54.0599 28.94 56.0733V56.1133C28.94 58.1266 28.2267 59.8399 26.8 61.2533ZM18.48 59.2333C19.28 60.0866 20.2933 60.5133 21.52 60.5133C22.7467 60.5133 23.7533 60.0933 24.54 59.2533C25.3267 58.4133 25.72 57.3799 25.72 56.1533V56.1133C25.72 54.8866 25.32 53.8466 24.52 52.9933C23.72 52.1399 22.7067 51.7133 21.48 51.7133C20.2533 51.7133 19.2467 52.1333 18.46 52.9733C17.6733 53.8133 17.28 54.8466 17.28 56.0733V56.1133C17.28 57.3399 17.68 58.3799 18.48 59.2333ZM41.6722 63.1133V49.1133H48.0722C49.8455 49.1133 51.2055 49.5866 52.1522 50.5333C52.9522 51.3333 53.3522 52.3999 53.3522 53.7333V53.7733C53.3522 55.9199 52.3522 57.3666 50.3522 58.1133L53.7722 63.1133H50.1722L47.1722 58.6333H44.7522V63.1133H41.6722ZM44.7522 55.9133H47.8722C48.6189 55.9133 49.1989 55.7399 49.6122 55.3933C50.0255 55.0333 50.2322 54.5466 50.2322 53.9333V53.8933C50.2322 53.2399 50.0189 52.7466 49.5922 52.4133C49.1789 52.0666 48.5855 51.8933 47.8122 51.8933H44.7522V55.9133ZM64.9253 63.1133L70.9253 49.0133H73.7653L79.7653 63.1133H76.5453L75.2653 59.9733H69.3453L68.0653 63.1133H64.9253ZM70.4453 57.2533H74.1653L72.3053 52.7133L70.4453 57.2533ZM97.5877 63.3533C95.5343 63.3533 93.821 62.6599 92.4477 61.2733C91.0877 59.8866 90.4077 58.1799 90.4077 56.1533V56.1133C90.4077 54.0866 91.0943 52.3733 92.4677 50.9733C93.841 49.5733 95.5877 48.8733 97.7077 48.8733C99.9477 48.8733 101.788 49.5933 103.228 51.0333L101.268 53.2933C100.081 52.2399 98.8877 51.7133 97.6877 51.7133C96.5277 51.7133 95.561 52.1399 94.7877 52.9933C94.0143 53.8333 93.6277 54.8599 93.6277 56.0733V56.1133C93.6277 57.3399 94.0077 58.3799 94.7677 59.2333C95.541 60.0866 96.5143 60.5133 97.6877 60.5133C98.4343 60.5133 99.081 60.3799 99.6277 60.1133C100.188 59.8466 100.768 59.4333 101.368 58.8733L103.328 60.8533C102.554 61.6933 101.721 62.3199 100.828 62.7333C99.9477 63.1466 98.8677 63.3533 97.5877 63.3533ZM115.793 63.1133V49.1133H118.873V60.3133H125.853V63.1133H115.793ZM138.176 63.1133V49.1133H148.736V51.8533H141.236V54.6933H147.836V57.4333H141.236V60.3733H148.836V63.1133H138.176ZM166.555 63.3133C164.248 63.3133 162.268 62.5666 160.615 61.0733L162.435 58.8933C163.835 60.0266 165.228 60.5933 166.615 60.5933C167.255 60.5933 167.748 60.4799 168.095 60.2533C168.455 60.0133 168.635 59.6866 168.635 59.2733V59.2333C168.635 58.8333 168.448 58.5066 168.075 58.2533C167.701 57.9999 166.948 57.7333 165.815 57.4533C165.028 57.2533 164.381 57.0599 163.875 56.8733C163.368 56.6733 162.895 56.4133 162.455 56.0933C162.015 55.7733 161.688 55.3733 161.475 54.8933C161.275 54.4133 161.175 53.8399 161.175 53.1733V53.1333C161.175 51.8666 161.628 50.8466 162.535 50.0733C163.441 49.2999 164.621 48.9133 166.075 48.9133C168.048 48.9133 169.781 49.5066 171.275 50.6933L169.675 53.0133C168.328 52.0933 167.115 51.6333 166.035 51.6333C165.448 51.6333 165.001 51.7466 164.695 51.9733C164.388 52.1999 164.235 52.4933 164.235 52.8533V52.8933C164.235 53.3466 164.421 53.6866 164.795 53.9133C165.181 54.1266 166.001 54.3999 167.255 54.7333C168.775 55.1466 169.895 55.6599 170.615 56.2733C171.335 56.8866 171.695 57.7733 171.695 58.9333V58.9733C171.695 60.3333 171.221 61.3999 170.275 62.1733C169.341 62.9333 168.101 63.3133 166.555 63.3133Z" fill="white"></path> </g> <defs> <filter id="filter0_f_42_73" x="9.06006" y="43.8733" width="167.635" height="24.48" filterUnits="userSpaceOnUse" color-interpolation-filters="sRGB"> <feFlood flood-opacity="0" result="BackgroundImageFix"></feFlood> <feBlend mode="normal" in="SourceGraphic" in2="BackgroundImageFix" result="shape"></feBlend> <feGaussianBlur stdDeviation="2.5" result="effect1_foregroundBlur_42_73"></feGaussianBlur> </filter> <linearGradient id="paint0_linear_42_73" x1="2.71201e-06" y1="18.1133" x2="76.5" y2="77.1133" gradientUnits="userSpaceOnUse"> <stop stop-color="white"></stop> <stop offset="1" stop-color="white" stop-opacity="0"></stop> </linearGradient> </defs> </svg> 