<?xml version="1.0" encoding="UTF-8"?> <svg xmlns="http://www.w3.org/2000/svg" width="188" height="113" viewBox="0 0 188 113" fill="none"> <circle cx="132" cy="56.1133" r="55" stroke="url(#paint0_linear_42_75)" stroke-width="2"></circle> <g filter="url(#filter0_f_42_75)"> <path d="M5.68 63.1133V49.1133H12.08C13.8533 49.1133 15.2133 49.5866 16.16 50.5333C16.96 51.3333 17.36 52.3999 17.36 53.7333V53.7733C17.36 55.9199 16.36 57.3666 14.36 58.1133L17.78 63.1133H14.18L11.18 58.6333H8.76V63.1133H5.68ZM8.76 55.9133H11.88C12.6267 55.9133 13.2067 55.7399 13.62 55.3933C14.0333 55.0333 14.24 54.5466 14.24 53.9333V53.8933C14.24 53.2399 14.0267 52.7466 13.6 52.4133C13.1867 52.0666 12.5933 51.8933 11.82 51.8933H8.76V55.9133ZM42.2531 61.2533C40.8398 62.6533 39.0665 63.3533 36.9331 63.3533C34.7998 63.3533 33.0265 62.6599 31.6131 61.2733C30.2131 59.8733 29.5131 58.1666 29.5131 56.1533V56.1133C29.5131 54.0999 30.2198 52.3933 31.6331 50.9933C33.0598 49.5799 34.8398 48.8733 36.9731 48.8733C39.1065 48.8733 40.8731 49.5733 42.2731 50.9733C43.6865 52.3599 44.3931 54.0599 44.3931 56.0733V56.1133C44.3931 58.1266 43.6798 59.8399 42.2531 61.2533ZM33.9331 59.2333C34.7331 60.0866 35.7465 60.5133 36.9731 60.5133C38.1998 60.5133 39.2065 60.0933 39.9931 59.2533C40.7798 58.4133 41.1731 57.3799 41.1731 56.1533V56.1133C41.1731 54.8866 40.7731 53.8466 39.9731 52.9933C39.1731 52.1399 38.1598 51.7133 36.9331 51.7133C35.7065 51.7133 34.6998 52.1333 33.9131 52.9733C33.1265 53.8133 32.7331 54.8466 32.7331 56.0733V56.1133C32.7331 57.3399 33.1331 58.3799 33.9331 59.2333ZM55.0269 63.1133L61.0269 49.0133H63.8669L69.8669 63.1133H66.6469L65.3669 59.9733H59.4469L58.1669 63.1133H55.0269ZM60.5469 57.2533H64.2669L62.4069 52.7133L60.5469 57.2533ZM82.0277 63.1133V49.1133H87.4877C89.661 49.1133 91.441 49.7799 92.8277 51.1133C94.2277 52.4333 94.9277 54.0866 94.9277 56.0733V56.1133C94.9277 58.1133 94.2277 59.7799 92.8277 61.1133C91.441 62.4466 89.661 63.1133 87.4877 63.1133H82.0277ZM87.4877 51.8933H85.1077V60.3333H87.4877C88.741 60.3333 89.7543 59.9466 90.5277 59.1733C91.3143 58.3999 91.7077 57.3933 91.7077 56.1533V56.1133C91.7077 54.8733 91.3143 53.8599 90.5277 53.0733C89.7543 52.2866 88.741 51.8933 87.4877 51.8933ZM107.672 63.1133V49.1133H110.992L114.672 55.0333L118.352 49.1133H121.672V63.1133H118.612V53.9733L114.672 59.9533H114.592L110.692 54.0333V63.1133H107.672ZM133.835 63.1133L139.835 49.0133H142.675L148.675 63.1133H145.455L144.175 59.9733H138.255L136.975 63.1133H133.835ZM139.355 57.2533H143.075L141.215 52.7133L139.355 57.2533ZM160.836 63.1133V49.1133H166.556C168.21 49.1133 169.516 49.5599 170.476 50.4533C171.436 51.3333 171.916 52.4999 171.916 53.9533V53.9933C171.916 55.5666 171.383 56.7799 170.316 57.6333C169.25 58.4866 167.896 58.9133 166.256 58.9133H163.916V63.1133H160.836ZM163.916 56.1733H166.356C167.103 56.1733 167.696 55.9733 168.136 55.5733C168.576 55.1733 168.796 54.6666 168.796 54.0533V54.0133C168.796 53.3333 168.576 52.8133 168.136 52.4533C167.696 52.0799 167.083 51.8933 166.296 51.8933H163.916V56.1733Z" fill="white"></path> </g> <path d="M5.68 63.1133V49.1133H12.08C13.8533 49.1133 15.2133 49.5866 16.16 50.5333C16.96 51.3333 17.36 52.3999 17.36 53.7333V53.7733C17.36 55.9199 16.36 57.3666 14.36 58.1133L17.78 63.1133H14.18L11.18 58.6333H8.76V63.1133H5.68ZM8.76 55.9133H11.88C12.6267 55.9133 13.2067 55.7399 13.62 55.3933C14.0333 55.0333 14.24 54.5466 14.24 53.9333V53.8933C14.24 53.2399 14.0267 52.7466 13.6 52.4133C13.1867 52.0666 12.5933 51.8933 11.82 51.8933H8.76V55.9133ZM42.2531 61.2533C40.8398 62.6533 39.0665 63.3533 36.9331 63.3533C34.7998 63.3533 33.0265 62.6599 31.6131 61.2733C30.2131 59.8733 29.5131 58.1666 29.5131 56.1533V56.1133C29.5131 54.0999 30.2198 52.3933 31.6331 50.9933C33.0598 49.5799 34.8398 48.8733 36.9731 48.8733C39.1065 48.8733 40.8731 49.5733 42.2731 50.9733C43.6865 52.3599 44.3931 54.0599 44.3931 56.0733V56.1133C44.3931 58.1266 43.6798 59.8399 42.2531 61.2533ZM33.9331 59.2333C34.7331 60.0866 35.7465 60.5133 36.9731 60.5133C38.1998 60.5133 39.2065 60.0933 39.9931 59.2533C40.7798 58.4133 41.1731 57.3799 41.1731 56.1533V56.1133C41.1731 54.8866 40.7731 53.8466 39.9731 52.9933C39.1731 52.1399 38.1598 51.7133 36.9331 51.7133C35.7065 51.7133 34.6998 52.1333 33.9131 52.9733C33.1265 53.8133 32.7331 54.8466 32.7331 56.0733V56.1133C32.7331 57.3399 33.1331 58.3799 33.9331 59.2333ZM55.0269 63.1133L61.0269 49.0133H63.8669L69.8669 63.1133H66.6469L65.3669 59.9733H59.4469L58.1669 63.1133H55.0269ZM60.5469 57.2533H64.2669L62.4069 52.7133L60.5469 57.2533ZM82.0277 63.1133V49.1133H87.4877C89.661 49.1133 91.441 49.7799 92.8277 51.1133C94.2277 52.4333 94.9277 54.0866 94.9277 56.0733V56.1133C94.9277 58.1133 94.2277 59.7799 92.8277 61.1133C91.441 62.4466 89.661 63.1133 87.4877 63.1133H82.0277ZM87.4877 51.8933H85.1077V60.3333H87.4877C88.741 60.3333 89.7543 59.9466 90.5277 59.1733C91.3143 58.3999 91.7077 57.3933 91.7077 56.1533V56.1133C91.7077 54.8733 91.3143 53.8599 90.5277 53.0733C89.7543 52.2866 88.741 51.8933 87.4877 51.8933ZM107.672 63.1133V49.1133H110.992L114.672 55.0333L118.352 49.1133H121.672V63.1133H118.612V53.9733L114.672 59.9533H114.592L110.692 54.0333V63.1133H107.672ZM133.835 63.1133L139.835 49.0133H142.675L148.675 63.1133H145.455L144.175 59.9733H138.255L136.975 63.1133H133.835ZM139.355 57.2533H143.075L141.215 52.7133L139.355 57.2533ZM160.836 63.1133V49.1133H166.556C168.21 49.1133 169.516 49.5599 170.476 50.4533C171.436 51.3333 171.916 52.4999 171.916 53.9533V53.9933C171.916 55.5666 171.383 56.7799 170.316 57.6333C169.25 58.4866 167.896 58.9133 166.256 58.9133H163.916V63.1133H160.836ZM163.916 56.1733H166.356C167.103 56.1733 167.696 55.9733 168.136 55.5733C168.576 55.1733 168.796 54.6666 168.796 54.0533V54.0133C168.796 53.3333 168.576 52.8133 168.136 52.4533C167.696 52.0799 167.083 51.8933 166.296 51.8933H163.916V56.1733Z" fill="white"></path> <defs> <filter id="filter0_f_42_75" x="0.679993" y="43.8733" width="176.236" height="24.48" filterUnits="userSpaceOnUse" color-interpolation-filters="sRGB"> <feFlood flood-opacity="0" result="BackgroundImageFix"></feFlood> <feBlend mode="normal" in="SourceGraphic" in2="BackgroundImageFix" result="shape"></feBlend> <feGaussianBlur stdDeviation="2.5" result="effect1_foregroundBlur_42_75"></feGaussianBlur> </filter> <linearGradient id="paint0_linear_42_75" x1="186" y1="24.6133" x2="110.5" y2="78.1133" gradientUnits="userSpaceOnUse"> <stop stop-color="white"></stop> <stop offset="1" stop-color="white" stop-opacity="0"></stop> </linearGradient> </defs> </svg> 