<?xml version="1.0" encoding="UTF-8"?> <svg xmlns="http://www.w3.org/2000/svg" width="151" height="112" viewBox="0 0 151 112" fill="none"> <circle cx="56" cy="56" r="55" stroke="url(#paint0_linear_45_91)" stroke-width="2"></circle> <path d="M20.66 63.2C18.3533 63.2 16.3733 62.4533 14.72 60.96L16.54 58.78C17.94 59.9133 19.3333 60.48 20.72 60.48C21.36 60.48 21.8533 60.3667 22.2 60.14C22.56 59.9 22.74 59.5733 22.74 59.16V59.12C22.74 58.72 22.5533 58.3933 22.18 58.14C21.8067 57.8867 21.0533 57.62 19.92 57.34C19.1333 57.14 18.4867 56.9467 17.98 56.76C17.4733 56.56 17 56.3 16.56 55.98C16.12 55.66 15.7933 55.26 15.58 54.78C15.38 54.3 15.28 53.7267 15.28 53.06V53.02C15.28 51.7533 15.7333 50.7333 16.64 49.96C17.5467 49.1867 18.7267 48.8 20.18 48.8C22.1533 48.8 23.8867 49.3933 25.38 50.58L23.78 52.9C22.4333 51.98 21.22 51.52 20.14 51.52C19.5533 51.52 19.1067 51.6333 18.8 51.86C18.4933 52.0867 18.34 52.38 18.34 52.74V52.78C18.34 53.2333 18.5267 53.5733 18.9 53.8C19.2867 54.0133 20.1067 54.2867 21.36 54.62C22.88 55.0333 24 55.5467 24.72 56.16C25.44 56.7733 25.8 57.66 25.8 58.82V58.86C25.8 60.22 25.3267 61.2867 24.38 62.06C23.4467 62.82 22.2067 63.2 20.66 63.2ZM36.98 63L42.98 48.9H45.82L51.82 63H48.6L47.32 59.86H41.4L40.12 63H36.98ZM42.5 57.14H46.22L44.36 52.6L42.5 57.14ZM63.9808 63V49H74.6408V51.8H67.0608V54.78H73.7408V57.58H67.0608V63H63.9808ZM87.1058 63V49H97.6658V51.74H90.1658V54.58H96.7658V57.32H90.1658V60.26H97.7658V63H87.1058ZM113.764 63V51.84H109.504V49H121.104V51.84H116.844V63H113.764ZM137.413 63V57.48L132.033 49H135.633L138.973 54.62L142.373 49H145.873L140.493 57.42V63H137.413Z" fill="white"></path> <g filter="url(#filter0_f_45_91)"> <path d="M20.66 63.2C18.3533 63.2 16.3733 62.4533 14.72 60.96L16.54 58.78C17.94 59.9133 19.3333 60.48 20.72 60.48C21.36 60.48 21.8533 60.3667 22.2 60.14C22.56 59.9 22.74 59.5733 22.74 59.16V59.12C22.74 58.72 22.5533 58.3933 22.18 58.14C21.8067 57.8867 21.0533 57.62 19.92 57.34C19.1333 57.14 18.4867 56.9467 17.98 56.76C17.4733 56.56 17 56.3 16.56 55.98C16.12 55.66 15.7933 55.26 15.58 54.78C15.38 54.3 15.28 53.7267 15.28 53.06V53.02C15.28 51.7533 15.7333 50.7333 16.64 49.96C17.5467 49.1867 18.7267 48.8 20.18 48.8C22.1533 48.8 23.8867 49.3933 25.38 50.58L23.78 52.9C22.4333 51.98 21.22 51.52 20.14 51.52C19.5533 51.52 19.1067 51.6333 18.8 51.86C18.4933 52.0867 18.34 52.38 18.34 52.74V52.78C18.34 53.2333 18.5267 53.5733 18.9 53.8C19.2867 54.0133 20.1067 54.2867 21.36 54.62C22.88 55.0333 24 55.5467 24.72 56.16C25.44 56.7733 25.8 57.66 25.8 58.82V58.86C25.8 60.22 25.3267 61.2867 24.38 62.06C23.4467 62.82 22.2067 63.2 20.66 63.2ZM36.98 63L42.98 48.9H45.82L51.82 63H48.6L47.32 59.86H41.4L40.12 63H36.98ZM42.5 57.14H46.22L44.36 52.6L42.5 57.14ZM63.9808 63V49H74.6408V51.8H67.0608V54.78H73.7408V57.58H67.0608V63H63.9808ZM87.1058 63V49H97.6658V51.74H90.1658V54.58H96.7658V57.32H90.1658V60.26H97.7658V63H87.1058ZM113.764 63V51.84H109.504V49H121.104V51.84H116.844V63H113.764ZM137.413 63V57.48L132.033 49H135.633L138.973 54.62L142.373 49H145.873L140.493 57.42V63H137.413Z" fill="white"></path> </g> <defs> <filter id="filter0_f_45_91" x="9.71997" y="43.8" width="141.153" height="24.3999" filterUnits="userSpaceOnUse" color-interpolation-filters="sRGB"> <feFlood flood-opacity="0" result="BackgroundImageFix"></feFlood> <feBlend mode="normal" in="SourceGraphic" in2="BackgroundImageFix" result="shape"></feBlend> <feGaussianBlur stdDeviation="2.5" result="effect1_foregroundBlur_45_91"></feGaussianBlur> </filter> <linearGradient id="paint0_linear_45_91" x1="2.5" y1="56" x2="89.5" y2="56" gradientUnits="userSpaceOnUse"> <stop stop-color="white"></stop> <stop offset="1" stop-color="white" stop-opacity="0"></stop> </linearGradient> </defs> </svg> 