<?xml version="1.0" encoding="UTF-8"?> <svg xmlns="http://www.w3.org/2000/svg" width="84" height="65" viewBox="0 0 84 65" fill="none"> <g filter="url(#filter0_b_9_252)"> <path d="M71.1566 5.44571C65.6478 2.86897 59.8201 1.03761 53.8273 0C53.0797 1.34778 52.2103 3.16582 51.6055 4.60597C45.24 3.63608 38.7642 3.63608 32.3988 4.60597C31.7313 3.03224 30.9812 1.49478 30.1518 0C24.1538 1.03932 18.3216 2.87499 12.8099 5.4583C1.84359 22.0264 -1.13003 38.1829 0.356783 54.1086C6.75828 58.9405 13.9506 62.6243 21.6131 64.9958C23.3348 62.6273 24.8575 60.1205 26.1659 57.5011C23.6773 56.553 21.278 55.3853 18.9965 54.012C19.5971 53.567 20.1851 53.1009 20.7521 52.6222C34.5744 59.084 49.5895 59.084 63.248 52.6222C63.8234 53.1009 64.4114 53.567 65.0036 54.012C62.7313 55.3808 60.3247 56.5564 57.8215 57.5053C59.1277 60.1259 60.6506 62.6329 62.3743 65C70.043 62.63 77.2401 58.9431 83.6433 54.1044C85.3863 35.6469 80.6655 19.6373 71.1566 5.44571V5.44571ZM28.0475 44.313C23.8979 44.313 20.4959 40.4418 20.4959 35.7267C20.4959 31.0116 23.8265 27.132 28.0475 27.132C32.2686 27.132 35.6706 31.0032 35.5992 35.7267C35.6034 40.4418 32.2686 44.313 28.0475 44.313ZM55.9525 44.313C51.8029 44.313 48.4009 40.4418 48.4009 35.7267C48.4009 31.0116 51.7315 27.132 55.9525 27.132C60.1735 27.132 63.5756 31.0032 63.5042 35.7267C63.5042 40.4418 60.1735 44.313 55.9525 44.313Z" fill="white"></path> </g> <defs> <filter id="filter0_b_9_252" x="-4" y="-4" width="92" height="73" filterUnits="userSpaceOnUse" color-interpolation-filters="sRGB"> <feFlood flood-opacity="0" result="BackgroundImageFix"></feFlood> <feGaussianBlur in="BackgroundImageFix" stdDeviation="2"></feGaussianBlur> <feComposite in2="SourceAlpha" operator="in" result="effect1_backgroundBlur_9_252"></feComposite> <feBlend mode="normal" in="SourceGraphic" in2="effect1_backgroundBlur_9_252" result="shape"></feBlend> </filter> </defs> </svg> 