<?xml version="1.0" encoding="UTF-8"?> <svg xmlns="http://www.w3.org/2000/svg" width="680" height="680" viewBox="0 0 680 680" fill="none"> <path d="M677.629 278.936C673.616 275.41 667.657 275.463 663.706 279.062C661.258 281.172 659.187 283.692 657.576 286.518C655.634 289.57 653.909 292.753 652.416 296.053C649.333 302.441 648.042 309.57 648.698 316.658C637 330.27 626.49 344.899 617.292 360.374C607.66 376.464 599.376 393.355 592.523 410.861C588.856 420.217 585.664 429.762 582.958 439.455C571.575 446.427 559.95 452.972 548.087 459.087C534.886 465.869 521.417 472.083 507.694 477.73C500.567 480.787 493.243 483.339 485.771 485.365C479.992 487.033 473.97 487.669 467.973 487.248C462.313 486.606 456.725 485.412 451.287 483.67C446.06 482.15 440.989 480.129 436.134 477.635C435.71 477.414 435.297 477.177 434.884 476.94V476.946C452.925 464.959 470.365 452.056 487.135 438.282C504.834 423.764 520.936 407.336 535.176 389.294C536.787 387.21 538.373 385.105 539.922 382.974L540.056 382.943C540.191 383.006 540.309 383.085 540.454 383.142C545.799 385.21 550.757 379.243 553.644 375.497L553.639 375.492C555.457 373.103 557.136 370.609 558.659 368.014L558.768 367.878V367.883C558.897 367.683 559.01 367.473 559.103 367.252C560.395 365.031 561.603 362.768 562.739 360.501C565.719 355.939 566.008 350.077 563.493 345.236C562.274 343.247 560.291 341.868 558.029 341.437C555.349 341.126 552.663 342.016 550.68 343.878C548.377 346.162 546.528 348.882 545.236 351.876C543.728 354.886 542.442 358.006 541.399 361.211C540.733 363.263 540.17 365.352 539.71 367.467C539.421 368.099 539.158 368.751 538.925 369.404V369.398C538.094 371.756 537.51 374.192 537.185 376.676C536.947 378.138 537.195 379.638 537.882 380.943C537.825 380.996 537.774 381.059 537.722 381.122C529.526 392.314 520.513 402.865 510.768 412.683C508.242 390.515 508.609 368.099 511.857 346.026C514.104 330.756 517.694 315.712 522.569 301.09C539.865 300.117 556.866 296.091 572.81 289.182C588.722 282.326 603.384 272.786 616.177 260.958C623.423 254.244 629.998 246.803 635.787 238.753C635.911 238.59 635.994 238.401 636.035 238.206C636.138 238.048 636.2 237.874 636.216 237.69C637.703 237.98 639.237 237.906 640.693 237.485C642.754 236.922 644.675 235.933 646.338 234.57C649.814 231.444 652.593 227.587 654.483 223.267C656.533 219.258 658.31 214.617 655.067 210.713C652.226 207.571 647.692 206.703 643.921 208.576C639.506 210.981 636.288 215.169 635.059 220.116C633.778 224.036 633.112 228.135 633.086 232.265C632.921 233.112 632.936 233.981 633.143 234.812C633.184 235.622 633.246 236.433 633.339 237.243L633.313 237.275C623.232 251.181 610.848 263.189 596.717 272.75C582.607 282.353 567.01 289.462 550.581 293.776C541.739 296.092 532.702 297.539 523.591 298.102C525.672 292.108 527.976 286.199 530.491 280.38C535.413 269.035 541.145 258.08 547.652 247.598C549.842 247.993 552.094 247.688 554.097 246.714C556.385 245.767 558.524 244.488 560.445 242.91C564.354 239.563 567.639 235.527 570.144 230.997C572.742 226.566 574.957 220.32 570.743 216.1H570.748C568.847 214.321 566.601 212.98 564.158 212.159C561.839 211.464 559.345 211.759 557.248 212.98C555.357 213.974 553.777 215.484 552.687 217.352C551.076 220.32 549.661 223.393 548.447 226.555C547.254 229.634 546.418 232.854 545.38 235.99H545.385C544.982 237.163 544.672 238.373 544.46 239.605C543.691 241.762 543.959 244.167 545.194 246.093C533.289 265.315 523.952 286.067 517.429 307.809C510.818 329.798 507.095 352.582 506.366 375.572C505.958 388.516 506.532 401.475 508.081 414.33C508.112 414.604 508.215 414.862 508.381 415.083C502.71 420.713 496.858 426.138 490.816 431.363L490.811 431.358C473.365 446.191 455.087 459.972 436.066 472.642C425.469 479.851 414.758 486.875 404.04 493.894C411.085 486.712 417.422 478.834 422.948 470.384C432.529 455.735 439.614 439.544 443.901 422.49C446.329 412.814 447.796 402.911 448.286 392.935C448.312 392.619 448.224 392.309 448.049 392.056C448.038 391.951 448.018 391.846 447.987 391.74C449.593 391.088 450.992 390.009 452.046 388.615C453.353 386.978 454.339 385.105 454.948 383.09C456.136 378.128 456.271 372.966 455.341 367.952C454.83 363.753 453.218 359.412 448.663 358.501V358.496C444.583 357.775 440.503 359.775 438.515 363.479C436.165 368.488 436.01 374.271 438.076 379.401C439.134 382.763 440.622 385.963 442.507 388.92C442.827 389.751 443.333 390.498 443.989 391.098C444.449 391.73 444.924 392.351 445.415 392.956C444.526 410.199 440.699 427.158 434.109 443.07C427.54 459.013 418.373 473.704 406.995 486.533C401.107 493.163 394.636 499.23 387.664 504.661C384.467 506.776 381.276 508.896 378.089 511.022C358.97 523.588 340.476 537.121 322.684 551.575C304.902 566.019 288.68 582.352 274.287 600.289C272.97 601.958 271.694 603.657 270.419 605.357C270.036 602.242 269.649 599.127 269.262 596.017C269.499 595.68 269.582 595.259 269.484 594.854C269.2 593.491 268.905 592.134 268.601 590.776C267.47 581.789 266.328 572.801 265.228 563.808C259.986 526.307 257.44 488.463 257.605 450.583C257.858 438.838 258.628 427.167 259.919 415.57C277.365 410.955 294.424 404.936 310.94 397.584C327.554 390.186 343.585 381.494 358.883 371.585C374.191 361.666 388.734 350.585 402.4 338.436C416.066 326.287 428.786 313.09 440.458 298.951C452.135 284.818 462.691 269.769 472.029 253.936C472.948 252.373 473.847 250.8 474.74 249.226C478.314 252.673 484.522 250.168 488.313 248.085C492.894 245.554 496.778 241.891 499.608 237.44C503.182 232.562 504.391 226.295 502.888 220.402C501.359 215.314 496.458 212.089 491.278 212.752C484.502 213.93 480.897 220.829 478.408 226.642C477.039 229.842 475.913 233.146 475.046 236.519C472.84 239.318 472.086 243.028 473.006 246.49C472.969 246.543 472.933 246.59 472.897 246.643C463.937 262.559 453.737 277.719 442.401 291.973C431.059 306.228 418.659 319.572 405.314 331.885C392.01 344.171 377.807 355.406 362.829 365.492C347.863 375.585 332.157 384.492 315.858 392.149C299.502 399.826 282.577 406.155 265.235 411.091C263.598 411.554 261.95 411.996 260.308 412.438H260.303C263.153 388.26 268.711 364.497 276.86 341.602C286.259 316.55 297.239 292.146 309.721 268.536C319.033 269.273 328.381 267.736 336.99 264.048C345.636 260.001 353.997 255.35 362.013 250.125C381.396 238.296 400.065 225.299 417.93 211.207C427.738 203.478 437.282 195.421 446.573 187.044C447.048 187.076 447.508 186.876 447.812 186.502C449.501 187.923 451.531 188.87 453.69 189.249C456.551 189.87 459.5 189.907 462.376 189.359C468.238 188.212 473.682 185.455 478.118 181.382C482.487 177.888 484.77 172.337 484.155 166.712C483.329 161.118 478.345 157.172 472.819 157.735C469.307 158.161 465.971 159.534 463.161 161.718C460.444 163.644 457.929 165.849 455.657 168.295C452.476 171.737 449.79 175.625 447.678 179.835C447.099 180.582 446.686 181.45 446.474 182.381C446.231 182.934 446.004 183.497 445.777 184.06H445.782C445.57 184.123 445.374 184.234 445.209 184.386C428.49 199.493 410.906 213.579 392.546 226.57C383.435 233.011 374.149 239.172 364.683 245.065C356.352 250.243 347.934 255.541 339.139 259.866C334.842 262.024 330.313 263.639 325.634 264.686C320.877 265.665 316.012 266.007 311.168 265.702C315.29 257.672 319.463 249.669 323.61 241.671C341.432 207.274 359.499 173.008 377.812 138.879C379.831 135.122 381.851 131.365 383.875 127.608H383.87C385.042 128.182 386.359 128.355 387.635 128.108C390.377 127.229 392.856 125.651 394.829 123.52C399.369 119.852 402.943 115.095 405.236 109.676C407.276 104.572 407.173 98.8418 404.952 93.8173C402.989 88.7449 397.618 85.9614 392.433 87.3347C389.814 88.6291 387.78 90.897 386.747 93.67C385.352 96.8272 384.237 100.095 383.405 103.447C381.861 109.461 381.122 115.659 381.205 121.879C381.133 122.569 381.153 123.274 381.267 123.958C381.283 124.4 381.293 124.842 381.324 125.284V125.289C381.334 125.515 381.396 125.736 381.505 125.931C363.233 159.85 345.203 193.904 327.416 228.086V228.091C309.63 260.503 293.469 293.812 278.998 327.899C278.069 330.23 277.165 332.571 276.277 334.918H276.282C267.528 318.679 260.432 301.562 255.117 283.846C249.591 265.34 245.976 246.303 244.333 227.033C243.182 213.436 242.965 199.777 243.683 186.153C264.867 174.477 284.24 159.66 301.154 142.184C318.518 124.446 333.181 104.167 344.655 82.0146C350.765 70.1648 355.795 57.7678 359.679 44.9817C361.621 45.3395 363.625 44.9765 365.324 43.9609C370.132 40.9143 373.422 35.9049 374.351 30.217C374.956 27.0862 375.162 23.8923 374.966 20.7088C374.904 17.7095 374.279 14.7576 373.122 12.0004C371.113 6.80166 365.391 4.19176 360.247 6.13864C354.674 9.5115 351.575 15.9152 352.345 22.4769C352.278 29.733 353.734 36.9159 356.616 43.5514C356.694 43.7408 356.807 43.9092 356.957 44.046C349.887 67.0293 339.252 88.714 325.464 108.273C311.333 128.51 294.383 146.537 275.15 161.791C265.291 169.61 254.827 176.609 243.868 182.717C244.157 178.14 244.545 173.572 245.035 169.01C247.272 149.062 251.341 129.366 257.198 110.193C263.318 89.8603 270.78 69.9497 276.177 49.3911C276.792 47.0443 277.37 44.6922 277.928 42.3349C283.217 39.5988 284.497 32.6635 285.453 27.2547C286.754 21.1246 286.646 14.7683 285.138 8.68575C284.58 5.9759 283.258 3.49223 281.337 1.53484C278.966 -0.143711 275.919 -0.469968 273.264 0.677147C270.501 1.34015 267.996 2.81868 266.055 4.93407C264.412 7.15979 263.483 9.84863 263.4 12.6375C263.168 19.1202 264.242 25.5818 266.556 31.6282C267.268 34.4749 268.683 37.09 270.672 39.2263C271.932 40.3892 273.559 41.068 275.263 41.1416C270.367 61.9683 263.008 82.0473 256.588 102.411C250.323 121.848 245.773 141.812 242.995 162.07C242.004 169.636 241.296 177.229 240.872 184.859C240.841 185.006 240.831 185.164 240.852 185.317C240.201 197.088 240.242 208.885 240.986 220.65C241.642 230.905 242.835 241.118 244.565 251.242C228.57 246.665 214.956 235.909 206.621 221.265C196.989 204.074 191.834 184.663 191.644 164.869C191.06 152.598 191.474 140.307 191.907 128.041H191.902C191.907 127.941 191.902 127.835 191.887 127.741C192.279 127.725 192.667 127.672 193.054 127.583C195.657 126.757 197.738 124.757 198.704 122.158C199.928 119.153 200.842 116.028 201.431 112.834C202.144 109.54 202.526 106.183 202.583 102.81C203.435 97.0164 200.672 91.2968 195.647 88.4503C193.085 87.1559 190.229 86.5876 187.378 86.8033C184.723 87.319 182.549 89.2606 181.702 91.8705C179.347 98.5005 178.996 105.694 180.7 112.523C181.867 118.343 183.443 125.836 189.005 128.825C187.264 150.852 188.524 173.02 192.754 194.693C196.679 212.5 205.914 228.637 219.192 240.887C226.381 247.317 234.99 251.884 244.286 254.194C244.549 254.258 244.828 254.247 245.086 254.158C246.538 262.171 248.324 270.107 250.447 277.973C255.612 296.948 262.775 315.296 271.813 332.702C272.83 334.66 273.879 336.601 274.942 338.532C269.881 352.182 265.755 366.168 262.589 380.396C258.715 398.481 256.288 416.855 255.322 435.335C253.835 473.194 255.586 511.112 260.554 548.655C261.385 555.895 262.258 563.13 263.167 570.365H263.172C258.777 556.232 253.478 542.409 247.307 528.98C237.38 507.728 226.266 487.07 214.021 467.11C201.827 446.805 189.055 426.868 176.748 406.631H176.754C164.338 386.641 152.939 366.015 142.605 344.835C137.947 335.053 133.66 325.082 129.87 314.916C130.04 314.795 130.185 314.637 130.298 314.458C142.301 294.926 151.653 273.826 158.109 251.737C164.581 229.648 168.144 206.78 168.702 183.733C169.001 171.11 168.366 158.487 166.807 145.958C166.987 145.905 167.158 145.811 167.297 145.684C168.764 144.548 169.74 142.869 170.014 141.012C170.293 140.133 170.499 139.233 170.633 138.323C171.041 135.581 171.32 132.803 171.687 130.057V130.051C172.095 126.605 172.235 123.132 172.1 119.659C172.183 117.681 171.925 115.697 171.326 113.813C170.086 109.825 166.502 107.078 162.401 106.968C159.674 106.752 156.942 107.304 154.504 108.567C152.547 109.946 151.194 112.056 150.745 114.434C150.285 116.839 150.218 119.307 150.538 121.733C150.812 124.49 151.282 127.221 151.958 129.904C153.125 135.108 155.718 139.865 159.436 143.628C160.686 144.912 162.256 145.822 163.971 146.269C166.264 164.891 166.512 183.713 164.72 202.387C150.182 194.273 137.104 183.713 126.037 171.142C114.628 158.246 105.457 143.47 98.9119 127.438C95.2967 118.529 92.544 109.284 90.6899 99.834C91.1288 99.1079 91.5368 98.366 91.9294 97.6136H91.9345C92.3838 97.0295 92.7144 96.356 92.9055 95.635C94.2482 92.6989 95.2295 89.5996 95.8286 86.4215C97.0061 81.6806 96.6756 76.6817 94.8835 72.1456C93.2256 68.236 89.4554 65.6892 85.2722 65.6577C81.0837 65.8208 77.6906 69.1832 77.4117 73.4452C77.2206 75.8235 77.2465 78.2178 77.4892 80.5961C77.6028 83.0955 77.9695 85.5738 78.5789 87.9943C79.5654 92.3143 82.2457 96.0346 86.0005 98.276C86.6099 98.597 87.2555 98.8233 87.9268 98.9548C87.8648 99.1758 87.8648 99.4126 87.9216 99.6336C87.8442 99.8809 87.8287 100.144 87.8803 100.402C91.2734 117.671 97.595 134.205 106.561 149.263C115.521 164.396 126.94 177.872 140.327 189.117C147.8 195.384 155.862 200.888 164.399 205.544C164.115 208.159 163.795 210.764 163.433 213.368H163.428C160.293 235.937 154.225 257.984 145.387 278.926C140.6 290.218 135.007 301.142 128.649 311.603C124.863 301.19 121.692 290.555 119.146 279.757C118.485 276.937 117.876 274.101 117.313 271.259C117.411 271.191 117.52 271.138 117.612 271.065C119.301 269.234 120.319 266.86 120.494 264.356C120.923 262.419 121.161 260.446 121.212 258.468C122.911 251.264 123.273 243.802 122.286 236.468C121.563 231.464 118.325 225.823 112.598 226.507C107.536 227.549 103.792 231.927 103.472 237.178C103.183 240.167 103.209 243.177 103.549 246.155C103.622 247.123 103.704 248.097 103.787 249.065L103.771 249.165C103.704 249.838 103.777 250.517 103.988 251.159C104.128 252.517 104.288 253.869 104.484 255.221C104.892 258.231 105.6 261.194 106.591 264.056C107.314 266.75 108.822 269.16 110.914 270.954C111.983 271.712 113.259 272.112 114.555 272.107C119.296 294.822 126.573 316.912 136.246 337.944C146.059 359.223 157.096 379.901 169.294 399.86C169.852 400.792 170.42 401.723 170.978 402.654C166.474 402.96 161.95 402.833 157.472 402.281C151.621 401.681 145.836 400.566 140.181 398.95C137.718 398.266 135.306 397.403 132.966 396.372C130.456 395.172 128.065 393.73 125.824 392.062C119.833 387.632 114.255 382.633 109.178 377.145C98.8232 366.3 89.0672 354.803 79.7448 343.032C70.3246 331.141 61.4161 318.854 53.0073 306.173C52.6923 305.7 52.3927 305.216 52.0777 304.742V304.737C54.9027 286.778 56.1733 268.598 55.8788 250.408C55.6257 231.613 53.8233 212.875 50.4973 194.384C48.7206 184.518 46.4535 174.758 43.7059 165.128C46.7582 159.992 48.5038 154.162 48.7879 148.169C49.2218 141.981 48.7879 135.766 47.5071 129.699C46.8719 123.764 42.4717 118.96 36.6976 117.913C30.9701 117.466 27.8507 122.922 26.89 127.916H26.8849C25.4026 133.951 25.5989 140.286 27.4478 146.211C29.2967 152.136 32.726 157.424 37.3535 161.481C38.3658 162.418 39.5949 163.07 40.9274 163.381C41.0823 163.391 41.2321 163.391 41.3818 163.381L41.3509 163.439C40.7673 163.728 40.4884 164.412 40.7001 165.038C45.7253 182.566 49.2062 200.514 51.0965 218.672C53.0797 237.152 53.5497 255.774 52.4909 274.332C51.9693 283.298 51.0501 292.227 49.7279 301.115C42.5698 290.06 35.8098 278.757 29.4358 267.202C28.625 265.723 27.8244 264.245 27.024 262.761H27.0291C27.055 262.651 27.0704 262.54 27.0756 262.424C27.37 252.264 27.2667 240.34 18.771 233.331C15.3365 230.205 10.6006 229.027 6.13843 230.19C1.54705 231.937 -0.96804 236.967 0.348937 241.776C0.948023 244.349 1.90866 246.817 3.19456 249.106C4.2688 251.258 5.49283 253.321 6.85621 255.289C9.46955 259.388 13.3016 262.529 17.7948 264.244C19.9174 265.097 22.3241 264.723 24.1058 263.266C24.1317 263.418 24.1833 263.56 24.2556 263.697C31.5428 277.283 39.3821 290.533 47.7803 303.456C56.1572 316.343 65.0606 328.855 74.4914 340.989C83.9013 353.113 93.8117 364.852 104.224 376.096C109.264 381.705 114.718 386.909 120.533 391.676C125.068 395.485 130.201 398.5 135.711 400.584C141.248 402.473 146.944 403.815 152.734 404.599C158.224 405.483 163.786 405.846 169.343 405.683C170.422 405.636 171.501 405.551 172.57 405.42L172.638 405.404C183.783 423.821 195.347 441.964 206.553 460.338C218.814 480.438 230.671 500.838 240.907 522.092L240.902 522.097C251.128 542.824 259.138 564.612 264.793 587.081C265.15 588.554 265.49 590.028 265.821 591.512C268.853 615.601 271.796 639.699 273.614 663.921C273.981 668.809 274.301 673.697 274.57 678.591C274.673 680.464 277.544 680.475 277.441 678.591C276.155 655.302 273.661 632.129 270.856 608.987H270.851C271.182 608.897 271.476 608.697 271.677 608.418C285.555 590.018 301.42 573.263 318.97 558.467C336.51 543.713 354.849 529.98 373.906 517.335C378.105 514.489 382.319 511.674 386.554 508.88C386.807 508.864 387.05 508.769 387.251 508.611C387.897 508.127 388.532 507.633 389.167 507.138C403.402 497.73 417.732 488.479 431.894 478.96L432.219 478.739H432.214C436.557 481.302 441.154 483.396 445.926 484.975C451.545 486.99 457.324 488.516 463.201 489.521C465.84 489.984 468.499 490.273 471.175 490.384C473.891 490.421 476.608 490.195 479.278 489.705C486.958 488.311 494.482 486.138 501.738 483.223C515.879 477.803 529.736 471.499 543.308 464.753C556.772 458.06 569.942 450.799 582.822 442.974C583.478 442.574 584.124 442.159 584.774 441.759V441.753C584.893 441.706 585.002 441.638 585.1 441.554C597.226 434.103 609.053 426.173 620.581 417.765C622.109 416.649 623.633 415.523 625.151 414.387C625.296 414.276 625.42 414.145 625.523 413.987C625.776 414.639 626.158 415.234 626.649 415.728C629.939 419.065 636.224 417.807 640.051 416.355C644.947 414.355 649.436 411.456 653.299 407.799C657.451 404.815 659.187 399.416 657.575 394.512C655.205 390.419 650.691 388.135 646.064 388.682C640.6 389.219 635.554 391.908 632.011 396.18C628.308 400.895 625.359 406.183 623.277 411.84C623.226 411.971 623.19 412.113 623.169 412.25C611.425 420.996 599.349 429.251 586.945 437.013L586.584 437.234C591.366 420.885 597.476 404.963 604.845 389.646C612.819 372.94 622.152 356.938 632.739 341.815C638.534 333.538 644.747 325.582 651.363 317.968C651.807 317.479 651.864 316.737 651.497 316.184L651.492 316.105L651.487 316.1C651.864 316.295 652.272 316.411 652.69 316.442C655.551 316.474 658.376 315.811 660.938 314.511C663.567 313.332 665.999 311.754 668.158 309.823C672.605 305.682 675.988 300.483 678.002 294.695C679.82 289.844 681.56 283.235 677.625 278.931L677.629 278.936Z" fill="url(#paint0_linear_14_334)"></path> <defs> <linearGradient id="paint0_linear_14_334" x1="340" y1="0" x2="340" y2="680" gradientUnits="userSpaceOnUse"> <stop offset="0.34375" stop-color="white"></stop> <stop offset="1" stop-color="white" stop-opacity="0"></stop> </linearGradient> </defs> </svg> 