<?xml version="1.0" encoding="UTF-8"?> <svg xmlns="http://www.w3.org/2000/svg" width="257" height="58" viewBox="0 0 257 58" fill="none"> <path d="M20.352 46.576C15.264 46.576 11.072 44.896 7.776 41.536C4.48 38.176 2.832 34.096 2.832 29.296V29.2C2.832 24.4 4.496 20.304 7.824 16.912C11.184 13.52 15.392 11.824 20.448 11.824C25.536 11.824 29.728 13.504 33.024 16.864C36.32 20.224 37.968 24.304 37.968 29.104V29.2C37.968 34 36.288 38.096 32.928 41.488C29.6 44.88 25.408 46.576 20.352 46.576ZM12.24 37.648C14.416 39.952 17.152 41.104 20.448 41.104C23.744 41.104 26.448 39.968 28.56 37.696C30.704 35.424 31.776 32.624 31.776 29.296V29.2C31.776 25.872 30.688 23.056 28.512 20.752C26.368 18.448 23.648 17.296 20.352 17.296C17.056 17.296 14.336 18.432 12.192 20.704C10.08 22.976 9.024 25.776 9.024 29.104V29.2C9.024 32.528 10.096 35.344 12.24 37.648ZM54.7012 46V12.4H69.6772C73.8372 12.4 77.0692 13.52 79.3733 15.76C81.2293 17.712 82.1573 20.128 82.1573 23.008V23.104C82.1573 25.76 81.4373 27.952 79.9973 29.68C78.5573 31.376 76.6212 32.576 74.1892 33.28L83.2613 46H76.2533L67.9972 34.288H60.6052V46H54.7012ZM60.6052 29.056H69.2452C71.3572 29.056 73.0372 28.56 74.2852 27.568C75.5332 26.544 76.1572 25.168 76.1572 23.44V23.344C76.1572 21.52 75.5492 20.144 74.3332 19.216C73.1492 18.256 71.4372 17.776 69.1972 17.776H60.6052V29.056ZM96.1087 46L110.893 12.16H116.365L131.149 46H124.909L121.501 37.888H105.613L102.157 46H96.1087ZM107.773 32.656H119.341L113.533 19.216L107.773 32.656ZM160.001 46.576C155.137 46.576 151.073 44.912 147.809 41.584C144.545 38.256 142.913 34.16 142.913 29.296V29.2C142.913 24.336 144.545 20.224 147.809 16.864C151.073 13.504 155.201 11.824 160.193 11.824C163.105 11.824 165.585 12.272 167.633 13.168C169.681 14.064 171.601 15.36 173.393 17.056L169.601 21.424C166.593 18.672 163.441 17.296 160.145 17.296C157.009 17.296 154.385 18.448 152.273 20.752C150.161 23.024 149.105 25.808 149.105 29.104V29.2C149.105 32.528 150.161 35.344 152.273 37.648C154.385 39.952 157.025 41.104 160.193 41.104C162.113 41.104 163.809 40.752 165.281 40.048C166.753 39.344 168.273 38.256 169.841 36.784L173.633 40.624C171.809 42.576 169.825 44.064 167.681 45.088C165.537 46.08 162.977 46.576 160.001 46.576ZM189.486 46V12.4H195.39V40.624H213.054V46H189.486ZM228.758 46V12.4H253.67V17.68H234.662V26.416H251.51V31.744H234.662V40.72H253.91V46H228.758Z" fill="white"></path> </svg> 